:SAMPLES-PER-SECOND 30
:FULLY-SPECIFIED
:DEGREES
512
root  4.06624 40.7656 -0.893615 -104.412 -87.6336 103.867
RightUpLeg  -0.581339 -10.6039 -6.30813
RightLeg  9.11348 -10.6587 3.89491
RightFoot  -6.50348 0.0368967 -1.91269
RightToes  0.000482159 0.542163 -0.142577
Spine  7.84284 0.785856 3.75125
Spine1  -0.282736 1.75229 -3.24948
HEad  -6.38369 -0.422885 0.203494
LeftShoulder1  1.4483 -4.46264 -10.9233
LeftArm  -23.8268 11.7416 -2.62973
LeftForeArm  11.5456 -12.8442 -1.16426
LeftHand  -0.25398 0.0180481 5.50724
RightShoulder  1.09131 2.78238 10.1051
RightArm  -23.3674 -2.96666 1.1351
RightForeArm  -9.64812 5.85913 3.34689
RightHand  -3.31348 9.86239 -25.2687
LeftUpLeg  -4.31659 11.1888 -1.56947
LeftLeg  11.4051 11.9522 0.919555
LeftFoot  -6.45287 0.109665 -1.6554
LeftToes  1.06245e-005 4.65856e-005 -8.18503e-006
513
root  4.00529 40.7464 -0.796773 -96.6698 -88.2936 95.4559
RightUpLeg  0.431243 -10.299 -5.90269
RightLeg  8.86577 -11.2565 3.82498
RightFoot  -6.62428 0.0332239 -1.88728
RightToes  0.000482159 0.542163 -0.142577
Spine  6.98746 0.725221 3.091
Spine1  -0.298359 1.4055 -1.92452
HEad  -5.35909 -0.350452 0.222207
LeftShoulder1  1.29129 -4.28402 -9.14472
LeftArm  -24.8836 10.4721 -2.30415
LeftForeArm  12.0844 -12.6753 -0.922552
LeftHand  -0.25398 0.0180481 5.50724
RightShoulder  0.915199 2.25842 8.44831
RightArm  -23.7423 -0.716315 0.041153
RightForeArm  -9.59055 5.73499 3.45904
RightHand  -3.32503 9.86503 -25.3482
LeftUpLeg  -2.41909 7.72401 -0.912135
LeftLeg  9.69691 12.0807 -0.00556052
LeftFoot  -6.5027 0.0521533 -0.313591
LeftToes  1.06245e-005 4.65856e-005 -8.18503e-006
514
root  3.94523 40.759 -0.707152 -77.5699 -88.5718 75.7026
RightUpLeg  1.40002 -10.0216 -5.69804
RightLeg  8.68479 -11.9071 3.58489
RightFoot  -6.6874 0.0271036 -1.78289
RightToes  0.000482159 0.542163 -0.142577
Spine  6.43907 0.536558 1.55577
Spine1  -0.46917 0.798921 -0.115675
HEad  -4.58188 0.0718065 0.408684
LeftShoulder1  1.13464 -3.91683 -7.70569
LeftArm  -25.6668 9.60721 -2.2266
LeftForeArm  12.8533 -12.5324 -0.714729
LeftHand  -0.25398 0.0180481 5.50724
RightShoulder  0.766783 1.77493 6.92126
RightArm  -24.1461 1.43064 -0.319317
RightForeArm  -9.27672 5.73566 3.5692
RightHand  -3.34323 9.85951 -25.4886
LeftUpLeg  -0.805384 5.61073 -0.478996
LeftLeg  7.88367 13.0583 -0.938391
LeftFoot  -6.17718 -0.00156006 0.854088
LeftToes  1.06245e-005 4.65856e-005 -8.18503e-006
515
root  3.91416 40.7879 -0.633813 -53.9029 -88.1817 51.5027
RightUpLeg  2.06649 -10.0737 -5.86349
RightLeg  8.82645 -12.4852 3.18742
RightFoot  -6.77956 0.0123838 -1.46316
RightToes  0.000482159 0.542163 -0.142577
Spine  6.14762 0.273804 -0.597253
Spine1  -0.542415 0.0968266 1.77431
HEad  -4.45214 0.425568 0.772774
LeftShoulder1  1.01309 -3.59514 -6.56605
LeftArm  -25.8811 9.06657 -2.24245
LeftForeArm  13.832 -12.3448 -0.616157
LeftHand  -0.25398 0.0180481 5.50724
RightShoulder  0.646439 1.28563 5.77034
RightArm  -24.3083 3.04925 -0.194977
RightForeArm  -8.30719 5.80504 3.65352
RightHand  -3.35863 9.90019 -25.5369
LeftUpLeg  0.31405 5.0473 -0.321863
LeftLeg  6.67461 13.4531 -1.8787
LeftFoot  -5.43748 -0.0394317 1.40368
LeftToes  1.06245e-005 4.65856e-005 -8.18503e-006
516
root  3.89949 40.82 -0.557414 -48.6279 -87.6392 45.958
RightUpLeg  2.32277 -10.3295 -6.20474
RightLeg  9.04673 -12.6431 2.76365
RightFoot  -6.77912 -0.00492381 -1.03118
RightToes  0.000482159 0.542163 -0.142577
Spine  5.83158 0.14514 -2.27846
Spine1  -0.519012 -0.282982 2.77054
HEad  -4.84588 0.358105 1.1486
LeftShoulder1  0.938262 -3.45978 -5.67013
LeftArm  -25.285 8.49196 -2.1684
LeftForeArm  14.611 -11.5224 -0.580474
LeftHand  -0.25398 0.0180481 5.50724
RightShoulder  0.589287 0.993579 5.3229
RightArm  -23.8007 3.94951 -0.292801
RightForeArm  -6.33618 5.5283 3.71411
RightHand  -3.2559 9.71454 -25.0787
LeftUpLeg  1.29972 4.51531 -0.350318
LeftLeg  5.27453 13.406 -2.97507
LeftFoot  -4.64322 -0.058858 1.48646
LeftToes  1.06245e-005 4.65856e-005 -8.18503e-006
517
root  3.87514 40.8504 -0.444977 -52.5503 -87.5903 49.796
RightUpLeg  2.46254 -10.3977 -6.42651
RightLeg  8.93357 -12.3927 2.5321
RightFoot  -6.607 -0.0180995 -0.645906
RightToes  0.000482159 0.542163 -0.142577
Spine  5.39228 0.197595 -2.7089
Spine1  -0.47821 -0.226461 2.59076
HEad  -5.38659 0.0779672 1.23824
LeftShoulder1  0.880229 -3.34529 -4.96879
LeftArm  -24.2287 7.75386 -2.14579
LeftForeArm  14.7067 -9.8607 -0.584261
LeftHand  -0.25398 0.0180481 5.50724
RightShoulder  0.58666 0.98118 5.29426
RightArm  -22.8074 4.40558 -0.752168
RightForeArm  -3.63159 4.58128 3.71214
RightHand  -2.97232 9.09129 -23.926
LeftUpLeg  2.40397 3.97696 -0.345495
LeftLeg  3.33835 13.4936 -4.04086
LeftFoot  -4.09429 -0.0637981 1.39753
LeftToes  1.06245e-005 4.65856e-005 -8.18503e-006
518
root  3.83335 40.8739 -0.293295 -58.0609 -87.8894 55.3199
RightUpLeg  2.68717 -10.1757 -6.48584
RightLeg  8.45928 -12.1662 2.54986
RightFoot  -6.42813 -0.0240869 -0.455298
RightToes  0.000482159 0.542163 -0.142577
Spine  4.86902 0.30604 -2.31625
Spine1  -0.406724 -0.0239295 2.06314
HEad  -5.84941 -0.01805 0.861216
LeftShoulder1  0.82842 -3.14261 -4.53248
LeftArm  -23.1993 7.1854 -2.38867
LeftForeArm  14.0523 -7.92665 -0.658683
LeftHand  -0.25398 0.0180481 5.50724
RightShoulder  0.58943 1.05001 5.13999
RightArm  -22.0192 4.73989 -1.12359
RightForeArm  -1.34464 3.18993 3.61768
RightHand  -2.62982 8.23618 -22.5571
LeftUpLeg  3.27086 4.11641 -0.248009
LeftLeg  1.75958 13.6501 -4.72936
LeftFoot  -3.77916 -0.0662835 1.34768
LeftToes  1.06245e-005 4.65856e-005 -8.18503e-006
519
root  3.78791 40.8914 -0.13573 -61.279 -88.153 58.7883
RightUpLeg  2.72813 -9.84752 -6.47626
RightLeg  7.90213 -12.2543 2.64841
RightFoot  -6.32224 -0.0217008 -0.472124
RightToes  0.000482159 0.542163 -0.142577
Spine  4.19846 0.375776 -1.9202
Spine1  -0.329948 0.091503 1.87776
HEad  -6.24492 0.0519691 0.255911
LeftShoulder1  0.812697 -3.03985 -4.48029
LeftArm  -22.0777 7.09425 -2.77605
LeftForeArm  13.0147 -6.22448 -0.81572
LeftHand  -0.25398 0.0180481 5.50724
RightShoulder  0.572545 1.01188 4.84098
RightArm  -21.8032 4.9325 -1.17114
RightForeArm  -0.672552 1.92996 3.48031
RightHand  -2.37447 7.44702 -21.6502
LeftUpLeg  3.41039 4.20556 -0.265313
LeftLeg  1.10391 13.9936 -5.0022
LeftFoot  -3.53149 -0.081357 1.50329
LeftToes  1.06245e-005 4.65856e-005 -8.18503e-006
520
root  3.75616 40.9041 -0.0037464 -63.9326 -88.3251 62.0078
RightUpLeg  2.28475 -9.5446 -6.39678
RightLeg  7.54323 -12.4676 2.6531
RightFoot  -6.16924 -0.0166486 -0.510075
RightToes  0.000482159 0.542163 -0.142577
Spine  3.38973 0.440154 -1.69739
Spine1  -0.337392 0.177929 1.86337
HEad  -6.68084 0.0718879 -0.116636
LeftShoulder1  0.842803 -3.14786 -4.76255
LeftArm  -20.5851 7.33257 -3.08181
LeftForeArm  11.9934 -4.5283 -1.10331
LeftHand  -0.25398 0.0180481 5.50724
RightShoulder  0.553408 0.886974 4.75685
RightArm  -21.8863 4.87924 -1.08384
RightForeArm  -1.37048 1.12023 3.38434
RightHand  -2.20909 6.80171 -21.2122
LeftUpLeg  2.88353 4.01234 -0.465453
LeftLeg  0.982854 14.2767 -4.98256
LeftFoot  -3.31406 -0.113308 1.90007
LeftToes  1.06245e-005 4.65856e-005 -8.18503e-006
